<svg xmlns="http://www.w3.org/2000/svg" viewBox="0 0 1196.04 354.17"><defs><style>.cls-1{fill:#fff;}.cls-2{fill:#e0e0e0;}.cls-3{fill:#444545;}.cls-4{fill:#f4848c;}.cls-5{fill:#90d1b8;}.cls-6{fill:#a6d3f1;}.cls-7{fill:#f9f5b3;}.cls-8{fill:#59595a;}</style></defs><title>banner-xcode-marketing</title><g id="Premade_Scenes" data-name="Premade Scenes"><g id="Circle_Clock" data-name="Circle Clock"><circle class="cls-1" cx="121.91" cy="34.99" r="25.78"/><circle class="cls-2" cx="121.91" cy="35.18" r="20.79"/><path class="cls-3" d="M121.91,62a26.78,26.78,0,1,1,26.78-26.78A26.82,26.82,0,0,1,121.91,62Zm0-51.56a24.78,24.78,0,1,0,24.78,24.78A24.81,24.81,0,0,0,121.91,10.4Z"/><path class="cls-3" d="M121.91,36.18a1,1,0,0,1-1-1V17.4a1,1,0,0,1,2,0V35.18A1,1,0,0,1,121.91,36.18Z"/><path class="cls-3" d="M121.91,36.18a1,1,0,0,1-.7-.3,1,1,0,0,1,0-1.41L129,26.7a1,1,0,1,1,1.42,1.42l-7.77,7.76A1,1,0,0,1,121.91,36.18Z"/></g><path class="cls-3" d="M462.75,80.52H345.56a1,1,0,0,1-1-1V74.77a1,1,0,0,1,1-1H462.75"/><rect class="cls-3" x="346.56" y="75.77" width="115.19" height="2.75"/><path class="cls-3" d="M350.31,85.27a1,1,0,0,1-1-1V79.52a1,1,0,1,1,2,0v4.75A1,1,0,0,1,350.31,85.27Z"/><path class="cls-3" d="M458,85.27a1,1,0,0,1-1-1V79.52a1,1,0,1,1,2,0v4.75A1,1,0,0,1,458,85.27Z"/><g id="Books_Vertical_" data-name="Books (Vertical)"><rect class="cls-1" x="368.31" y="46.91" width="4.56" height="23.3"/><rect class="cls-4" x="368.31" y="70.21" width="4.56" height="4.56"/><path class="cls-3" d="M372.88,75.77h-4.57a1,1,0,0,1-1-1V46.87a1,1,0,0,1,1-1h4.57a1,1,0,0,1,1,1v27.9A1,1,0,0,1,372.88,75.77Zm-3.57-2h2.57V47.87h-2.57Z"/><path class="cls-3" d="M372.88,71.21h-4.57a1,1,0,0,1,0-2h4.57a1,1,0,0,1,0,2Z"/><rect class="cls-1" x="387.75" y="41.74" width="8.25" height="33.03"/><path class="cls-3" d="M396.23,75.77H387.5a1,1,0,0,1-1-1V41.49a1,1,0,0,1,1-1h8.73a1,1,0,0,1,1,1V74.77A1,1,0,0,1,396.23,75.77Zm-7.73-2h6.73V42.49H388.5Z"/><path class="cls-3" d="M396.23,63.5a5.37,5.37,0,1,1,0-10.73,1,1,0,0,1,1,1V62.5A1,1,0,0,1,396.23,63.5Zm-1-8.58a3.37,3.37,0,0,0,0,6.43Z"/><path class="cls-3" d="M418.63,71.68,405.5,33.18a1,1,0,0,0-.5-.57,1,1,0,0,0-.77,0l-5.94,2a1,1,0,0,0-.62,1.27l13.12,38.49a1,1,0,0,0,.51.58,1,1,0,0,0,.44.1,1.13,1.13,0,0,0,.32,0L418,73A1,1,0,0,0,418.63,71.68Zm-6.27,1.08-12.48-36.6,4.05-1.38,12.48,36.6Z"/><rect class="cls-1" x="406" y="34.44" width="4.28" height="38.67" transform="translate(4.47 134.51) rotate(-18.82)"/><rect class="cls-5" x="402.98" y="41.55" width="6.28" height="12.56" transform="translate(6.29 133.62) rotate(-18.83)"/><path class="cls-3" d="M405.17,55.78a1,1,0,0,1-.44-.1.94.94,0,0,1-.5-.57l-4.06-11.89a1,1,0,0,1,.05-.76,1,1,0,0,1,.57-.51l5.95-2a1,1,0,0,1,1.27.63l4.05,11.89a1,1,0,0,1-.62,1.26l-5.95,2A.86.86,0,0,1,405.17,55.78Zm-2.78-12.26,3.4,10,4.06-1.39-3.41-10Z"/><rect class="cls-1" x="357.04" y="45.91" width="7" height="21.86"/><rect class="cls-6" x="357.04" y="38.91" width="7" height="7"/><rect class="cls-6" x="357.04" y="67.77" width="7" height="7"/><path class="cls-3" d="M364,75.77h-7a1,1,0,0,1-1-1V38.91a1,1,0,0,1,1-1h7a1,1,0,0,1,1,1V74.77A1,1,0,0,1,364,75.77Zm-6-2h5V39.91h-5Z"/><path class="cls-3" d="M364,46.91h-7a1,1,0,0,1,0-2h7a1,1,0,0,1,0,2Z"/><path class="cls-3" d="M364,68.77h-7a1,1,0,0,1,0-2h7a1,1,0,0,1,0,2Z"/><rect class="cls-1" x="377.09" y="31.96" width="6.28" height="42.81"/><rect class="cls-7" x="377.09" y="40.74" width="6.28" height="18.84"/><path class="cls-3" d="M383.38,75.77H377.1a1,1,0,0,1-1-1V31.82a1,1,0,0,1,1-1h6.28a1,1,0,0,1,1,1V74.77A1,1,0,0,1,383.38,75.77Zm-5.28-2h4.28V32.82H378.1Z"/><path class="cls-3" d="M383.37,41.74h-6.28a1,1,0,0,1,0-2h6.28a1,1,0,0,1,0,2Z"/><path class="cls-3" d="M383.37,60.58h-6.28a1,1,0,0,1,0-2h6.28a1,1,0,0,1,0,2Z"/></g><g id="Desk_2" data-name="Desk 2"><path class="cls-3" d="M414.51,210.1a1.34,1.34,0,0,0-.07-.18l-.06-.11-5.72-10.67a1,1,0,0,0-.88-.53H40.22a1,1,0,0,0-.88.53l-5.72,10.67-.06.11a1.34,1.34,0,0,0-.07.18.8.8,0,0,0,0,.27,1,1,0,0,0,.14.51,1,1,0,0,0,.86.49h379.1a1,1,0,0,0,.86-.49,1,1,0,0,0,.14-.51A.8.8,0,0,0,414.51,210.1Zm-378.39-.73,4.7-8.76H407.18l4.7,8.76Z"/><polygon class="cls-1" points="411.88 209.37 36.12 209.37 40.82 200.61 407.18 200.61 411.88 209.37"/><path class="cls-3" d="M49.63,328H40.87a1,1,0,0,0-1,1v7.43c0,1.82,2.31,3.19,5.38,3.19s5.38-1.37,5.38-3.19V329A1,1,0,0,0,49.63,328Zm-1,8.43c0,.36-1.28,1.19-3.38,1.19s-3.38-.83-3.38-1.19V330h6.76Z"/><path class="cls-1" d="M48.63,330v6.43c0,.36-1.28,1.19-3.38,1.19s-3.38-.83-3.38-1.19V330Z"/><path class="cls-3" d="M94.69,328H85.93a1,1,0,0,0-1,1v7.43c0,1.82,2.31,3.19,5.38,3.19s5.38-1.37,5.38-3.19V329A1,1,0,0,0,94.69,328Zm-1,8.43c0,.36-1.28,1.19-3.38,1.19s-3.38-.83-3.38-1.19V330h6.76Z"/><path class="cls-1" d="M93.69,330v6.43c0,.36-1.28,1.19-3.38,1.19s-3.38-.83-3.38-1.19V330Z"/><path class="cls-3" d="M407,328H398.2a1,1,0,0,0-1,1v7.43c0,1.82,2.31,3.19,5.38,3.19s5.38-1.37,5.38-3.19V329A1,1,0,0,0,407,328Zm-1,8.43c0,.36-1.28,1.19-3.38,1.19s-3.38-.83-3.38-1.19V330H406Z"/><path class="cls-1" d="M406,330v6.43c0,.36-1.28,1.19-3.38,1.19s-3.38-.83-3.38-1.19V330Z"/><path class="cls-3" d="M361.9,328h-8.76a1,1,0,0,0-1,1v7.43c0,1.82,2.31,3.19,5.38,3.19s5.38-1.37,5.38-3.19V329A1,1,0,0,0,361.9,328Zm-1,8.43c0,.36-1.28,1.19-3.38,1.19s-3.38-.83-3.38-1.19V330h6.76Z"/><path class="cls-1" d="M360.9,330v6.43c0,.36-1.28,1.19-3.38,1.19s-3.38-.83-3.38-1.19V330Z"/><path class="cls-3" d="M108.72,318.18a1,1,0,0,1-.17.56l-5.72,10.68a1,1,0,0,1-.88.53l-.24,0h0a1,1,0,0,1-.22-.09,1,1,0,0,1-.41-1.35l1.38-2.58,4.27-8,.11-.21a1,1,0,0,1,1.36-.41A1,1,0,0,1,108.72,318.18Z"/><path class="cls-3" d="M108.72,238.46v79.72a1,1,0,0,1-.17.56,1,1,0,0,1-1.83-.56V238.46a1,1,0,0,1,2,0Z"/><path class="cls-3" d="M107.72,237.46a1,1,0,0,1,1,1v1H339.28v-1a1,1,0,0,1,1-1ZM414.51,210.1a1.34,1.34,0,0,0-.07-.18l-.06-.11a1,1,0,0,0-.83-.44H34.45a1,1,0,0,0-.83.44l-.06.11a1.34,1.34,0,0,0-.07.18.8.8,0,0,0,0,.27V329a1,1,0,0,0,1,1h67a1,1,0,0,0,.25,0h0a1,1,0,0,0,.74-1V239.46h243.1V329a1,1,0,0,0,.74,1h0a1,1,0,0,0,.25,0h67a1,1,0,0,0,1-1V210.37A.8.8,0,0,0,414.51,210.1Zm-2,117.85h-65V238.46a1,1,0,0,0-1-1H101.45a1,1,0,0,0-1,1V328h-65V211.37h377.1ZM107.72,237.46a1,1,0,0,1,1,1v1H339.28v-1a1,1,0,0,1,1-1Z"/><polygon class="cls-1" points="106.72 239.46 106.72 317.92 102.45 325.9 102.45 239.46 106.72 239.46"/><path class="cls-1" d="M35.45,211.37V328h65V238.46a1,1,0,0,1,1-1h245.1a1,1,0,0,1,1,1V328h65V211.37ZM95.69,321.68a1,1,0,0,1-1,1H40.87a1,1,0,0,1-1-1V238.46a1,1,0,0,1,1-1H94.69a1,1,0,0,1,1,1Zm180-90.52a1,1,0,0,1-1,1H173.35a1,1,0,0,1-1-1V217.67a1,1,0,0,1,1-1h101.3a1,1,0,0,1,1,1ZM408,321.68a1,1,0,0,1-1,1H353.14a1,1,0,0,1-1-1V238.46a1,1,0,0,1,1-1H407a1,1,0,0,1,1,1Z"/><path class="cls-3" d="M346.52,329.83a1,1,0,0,1-.22.09h0l-.24,0a1,1,0,0,1-.88-.53l-5.72-10.68a.54.54,0,0,1-.07-.13,1.34,1.34,0,0,1-.07-.18,1.07,1.07,0,0,1,0-.25,1,1,0,0,1,.53-.88,1,1,0,0,1,1.36.41l.11.21,4.27,8,1.38,2.58A1,1,0,0,1,346.52,329.83Z"/><polygon class="cls-1" points="345.55 239.46 345.55 325.9 341.28 317.92 341.28 239.46 345.55 239.46"/><path class="cls-3" d="M341.28,238.46v79.72a1,1,0,0,1-1.83.56.54.54,0,0,1-.07-.13,1.34,1.34,0,0,1-.07-.18,1.07,1.07,0,0,1,0-.25V238.46a1,1,0,0,1,2,0Z"/><path class="cls-3" d="M274.65,216.67H173.35a1,1,0,0,0-1,1v13.49a1,1,0,0,0,1,1h101.3a1,1,0,0,0,1-1V217.67A1,1,0,0,0,274.65,216.67Zm-1,13.49h-99.3V218.67h99.3Z"/><path class="cls-1" d="M174.35,218.67v11.49h99.3V218.67ZM229,225.41H219a1,1,0,0,1,0-2H229a1,1,0,0,1,0,2Z"/><path class="cls-3" d="M94.69,237.46H40.87a1,1,0,0,0-1,1v83.22a1,1,0,0,0,1,1H94.69a1,1,0,0,0,1-1V238.46A1,1,0,0,0,94.69,237.46Zm-1,83.22H41.87V239.46H93.69Z"/><path class="cls-1" d="M41.87,281.07v39.61H93.69V281.07Zm30.95,5.41H62.75a1,1,0,0,1,0-2H72.82a1,1,0,0,1,0,2Z"/><path class="cls-1" d="M41.87,239.46v39.61H93.69V239.46Zm30.95,5.41H62.75a1,1,0,0,1,0-2H72.82a1,1,0,0,1,0,2Z"/><path class="cls-3" d="M407,237.46H353.14a1,1,0,0,0-1,1v83.22a1,1,0,0,0,1,1H407a1,1,0,0,0,1-1V238.46A1,1,0,0,0,407,237.46Zm-1,83.22H354.14V239.46H406Z"/><path class="cls-1" d="M354.14,281.07v39.61H406V281.07Zm30.95,5.41H375a1,1,0,0,1,0-2h10.08a1,1,0,0,1,0,2Z"/><path class="cls-1" d="M354.14,239.46v39.61H406V239.46Zm30.95,5.41H375a1,1,0,0,1,0-2h10.08a1,1,0,1,1,0,2Z"/><path class="cls-3" d="M95.69,280.07a1,1,0,0,1-1,1H40.87a1,1,0,0,1,0-2H94.69A1,1,0,0,1,95.69,280.07Z"/><path class="cls-3" d="M408,280.07a1,1,0,0,1-1,1H353.14a1,1,0,0,1,0-2H407A1,1,0,0,1,408,280.07Z"/><path class="cls-3" d="M73.82,243.87a1,1,0,0,1-1,1H62.75a1,1,0,0,1,0-2H72.82A1,1,0,0,1,73.82,243.87Z"/><path class="cls-3" d="M230,224.41a1,1,0,0,1-1,1H219a1,1,0,0,1,0-2H229A1,1,0,0,1,230,224.41Z"/><path class="cls-3" d="M73.82,285.48a1,1,0,0,1-1,1H62.75a1,1,0,0,1,0-2H72.82A1,1,0,0,1,73.82,285.48Z"/><path class="cls-3" d="M386.09,243.87a1,1,0,0,1-1,1H375a1,1,0,0,1,0-2h10.08A1,1,0,0,1,386.09,243.87Z"/><path class="cls-3" d="M386.09,285.48a1,1,0,0,1-1,1H375a1,1,0,0,1,0-2h10.08A1,1,0,0,1,386.09,285.48Z"/><rect class="cls-1" x="108.72" y="239.46" width="230.56" height="16.33"/><path class="cls-3" d="M341.28,256.79a1,1,0,0,1-1,1H107.72a1,1,0,0,1,0-2H340.28A1,1,0,0,1,341.28,256.79Z"/></g><g id="Grass_2" data-name="Grass 2"><path class="cls-5" d="M316.3,191.8a1,1,0,0,1-1-.78l-1.62-7a1,1,0,1,1,1.94-.45l1.63,7a1,1,0,0,1-.75,1.2A.85.85,0,0,1,316.3,191.8Z"/><path class="cls-5" d="M345.24,191.8a.91.91,0,0,1-.23,0,1,1,0,0,1-.75-1.2l1.63-7a1,1,0,0,1,1.2-.75,1,1,0,0,1,.75,1.2l-1.63,7A1,1,0,0,1,345.24,191.8Z"/><path class="cls-5" d="M319,191.8a1,1,0,0,1-1-.94l-.57-9.13a1,1,0,1,1,2-.12l.56,9.12a1,1,0,0,1-.93,1.06Z"/><path class="cls-5" d="M321.17,191.8h-.05a1,1,0,0,1-.95-1l.37-7.69a1,1,0,1,1,2,.1l-.37,7.68A1,1,0,0,1,321.17,191.8Z"/><path class="cls-5" d="M325.56,191.8a1,1,0,0,1-1-.9l-1.12-10.31a1,1,0,1,1,2-.21l1.13,10.31a1,1,0,0,1-.89,1.1Z"/><path class="cls-5" d="M331.12,191.61a1,1,0,0,1-1-.93l-.75-9.93a1,1,0,1,1,2-.15l.75,9.93a1,1,0,0,1-.92,1.08Z"/><path class="cls-5" d="M333.62,191.8a1,1,0,0,1-1-1l-.06-6.69a1,1,0,0,1,1-1h0a1,1,0,0,1,1,1l.06,6.69a1,1,0,0,1-1,1Z"/><path class="cls-5" d="M335.75,191.76h-.1a1,1,0,0,1-.89-1.1l.94-9.12a1,1,0,1,1,2,.2l-.94,9.13A1,1,0,0,1,335.75,191.76Z"/><path class="cls-5" d="M339,191.83a1.13,1.13,0,0,1-.32-.05,1,1,0,0,1-.63-1.27l3.06-9.19a1,1,0,0,1,1.26-.63A1,1,0,0,1,343,182l-3.07,9.18A1,1,0,0,1,339,191.83Z"/><path class="cls-5" d="M325.65,191.83a1.12,1.12,0,0,1-.31-.05,1,1,0,0,1-.64-1.27l2.56-7.75a1,1,0,0,1,1.27-.63,1,1,0,0,1,.63,1.26l-2.56,7.75A1,1,0,0,1,325.65,191.83Z"/><path class="cls-5" d="M342.21,191.64a1,1,0,0,1-1-.81L339.51,182a1,1,0,0,1,2-.38l1.72,8.81a1,1,0,0,1-.79,1.17Z"/><rect class="cls-1" x="313.56" y="190.8" width="34.25" height="12"/><path class="cls-3" d="M347.81,203.8H313.56a1,1,0,0,1-1-1v-12a1,1,0,0,1,1-1h34.25a1,1,0,0,1,1,1v12A1,1,0,0,1,347.81,203.8Zm-33.25-2h32.25v-10H314.56Z"/></g><g id="Paper_Holder" data-name="Paper Holder"><rect class="cls-2" x="355.59" y="190.25" width="45.67" height="4.74"/><rect class="cls-2" x="355.59" y="196.99" width="45.67" height="4.74"/><path class="cls-3" d="M355.59,202.72a1,1,0,0,1-1-1V197a1,1,0,1,1,2,0v4.73A1,1,0,0,1,355.59,202.72Z"/><path class="cls-3" d="M357.59,204.72a1,1,0,0,1-1-1v-2a1,1,0,1,1,2,0v2A1,1,0,0,1,357.59,204.72Z"/><path class="cls-3" d="M401.26,202.72H355.59a1,1,0,0,1,0-2h45.67a1,1,0,0,1,0,2Z"/><path class="cls-3" d="M401.26,202.72a1,1,0,0,1-1-1V197a1,1,0,0,1,2,0v4.73A1,1,0,0,1,401.26,202.72Z"/><path class="cls-3" d="M399.26,204.72a1,1,0,0,1-1-1v-2a1,1,0,0,1,2,0v2A1,1,0,0,1,399.26,204.72Z"/><path class="cls-3" d="M355.59,196a1,1,0,0,1-1-1v-4.74a1,1,0,1,1,2,0V195A1,1,0,0,1,355.59,196Z"/><path class="cls-3" d="M401.26,196H355.59a1,1,0,1,1,0-2h45.67a1,1,0,0,1,0,2Z"/><path class="cls-3" d="M401.26,196a1,1,0,0,1-1-1v-4.74a1,1,0,0,1,2,0V195A1,1,0,0,1,401.26,196Z"/><path class="cls-3" d="M357.59,198a1,1,0,0,1-1-1v-2a1,1,0,1,1,2,0v2A1,1,0,0,1,357.59,198Z"/><path class="cls-3" d="M399.26,198a1,1,0,0,1-1-1v-2a1,1,0,0,1,2,0v2A1,1,0,0,1,399.26,198Z"/><path class="cls-1" d="M398.79,193.62H358.06a1,1,0,0,1,0-2h40.73a1,1,0,1,1,0,2Z"/><path class="cls-1" d="M398.79,200.35H358.06a1,1,0,0,1,0-2h40.73a1,1,0,0,1,0,2Z"/></g><g id="Pen_Holder" data-name="Pen Holder"><rect class="cls-1" x="68.62" y="184.4" width="14.02" height="20.04"/><path class="cls-7" d="M77.07,185.4a.94.94,0,0,1-.37-.07,1,1,0,0,1-.56-1.3L80,174.52a1,1,0,1,1,1.86.74L78,184.77A1,1,0,0,1,77.07,185.4Z"/><path class="cls-6" d="M71.46,185.4a1,1,0,0,1-.93-.63l-3.77-9.52a1,1,0,0,1,1.86-.74L72.39,184a1,1,0,0,1-.56,1.3A1,1,0,0,1,71.46,185.4Z"/><path class="cls-4" d="M79.89,185.4a1,1,0,0,1-.87-1.5l6-10.34a1,1,0,0,1,1.37-.37,1,1,0,0,1,.36,1.37l-6,10.34A1,1,0,0,1,79.89,185.4Z"/><path class="cls-3" d="M82.64,205.44h-14a1,1,0,0,1-1-1v-20a1,1,0,0,1,1-1h14a1,1,0,0,1,1,1v20A1,1,0,0,1,82.64,205.44Zm-13-2h12v-18h-12Z"/></g><g id="Desktop"><rect class="cls-2" x="130.02" y="178.64" width="95.76" height="12.91"/><path class="cls-1" d="M225.78,192.55H130a1,1,0,0,1-1-1V178.64a1,1,0,0,1,1-1h95.76a1,1,0,0,1,1,1v12.91A1,1,0,0,1,225.78,192.55Zm-94.76-2h93.76V179.64H131Z"/><rect class="cls-3" x="130.02" y="120.59" width="95.76" height="58.05"/><path class="cls-3" d="M225.78,179.64H130a1,1,0,0,1-1-1v-58a1,1,0,0,1,1-1h95.76a1,1,0,0,1,1,1v58A1,1,0,0,1,225.78,179.64Zm-94.76-2h93.76v-56H131Z"/><rect class="cls-8" x="133.45" y="124.02" width="88.91" height="52.24"/><rect class="cls-3" x="175.72" y="182.73" width="4.37" height="4.37" rx="2.19"/><polyline class="cls-2" points="177.91 191.56 186.83 191.56 187.84 202.62 167.97 202.62 168.97 191.56 177.91 191.56"/><path class="cls-3" d="M187.83,203.62H168a1,1,0,0,1-1-1.09l1-11.06a1,1,0,0,1,1-.91h17.85a1,1,0,0,1,1,.91l1,11.06a1,1,0,0,1-.26.77A1,1,0,0,1,187.83,203.62Zm-18.76-2h17.67l-.82-9.06h-16Z"/><path class="cls-3" d="M194.52,203.62H161.29a1,1,0,1,1,0-2h33.23a1,1,0,0,1,0,2Z"/><path class="cls-3" d="M225.78,192.55H130a1,1,0,0,1-1-1V178.64a1,1,0,0,1,1-1h95.76a1,1,0,0,1,1,1v12.91A1,1,0,0,1,225.78,192.55Zm-94.76-2h93.76V179.64H131Z"/></g><g id="Keyboard_Mouse" data-name="Keyboard + Mouse"><path class="cls-3" d="M204.58,207.37H150.34a1,1,0,0,1,0-2h54.24a1,1,0,1,1,0,2Z"/><path class="cls-1" d="M213.31,207.31a4.66,4.66,0,0,1,9.31,0Z"/><path class="cls-3" d="M222.62,208.31h-9.31a1,1,0,0,1-1-1,5.66,5.66,0,0,1,11.31,0A1,1,0,0,1,222.62,208.31Zm-8.17-2h7a3.66,3.66,0,0,0-7,0Z"/></g><g id="Outlet"><rect class="cls-1" x="114.28" y="273.91" width="14.98" height="22.61"/><path class="cls-3" d="M129.26,297.53h-15a1,1,0,0,1-1-1V273.91a1,1,0,0,1,1-1h15a1,1,0,0,1,1,1v22.62A1,1,0,0,1,129.26,297.53Zm-14-2h13V274.91h-13Z"/><path class="cls-3" d="M119.87,283.46a1,1,0,0,1-1-1v-2.82a1,1,0,0,1,2,0v2.82A1,1,0,0,1,119.87,283.46Z"/><path class="cls-3" d="M123.68,283.46a1,1,0,0,1-1-1v-2.82a1,1,0,0,1,2,0v2.82A1,1,0,0,1,123.68,283.46Z"/><path class="cls-3" d="M119.87,291.8a1,1,0,0,1-1-1V288a1,1,0,0,1,2,0v2.82A1,1,0,0,1,119.87,291.8Z"/><path class="cls-3" d="M123.68,291.8a1,1,0,0,1-1-1V288a1,1,0,0,1,2,0v2.82A1,1,0,0,1,123.68,291.8Z"/></g><g id="Wire"><path class="cls-3" d="M127.53,281.46a24.67,24.67,0,0,0,24.64-24.64,1,1,0,0,0-2,0,22.66,22.66,0,0,1-22.64,22.64,1,1,0,0,0,0,2Z"/><path class="cls-2" d="M119.87,277.91V283H125a2.56,2.56,0,0,0,0-5.11Z"/><path class="cls-3" d="M118.87,283v-5.11a1,1,0,0,1,1-1H125a3.56,3.56,0,0,1,0,7.11h-5.11A1,1,0,0,1,118.87,283Zm2-4.11V282H125a1.56,1.56,0,0,0,0-3.11Z"/></g><g id="Waste_Basket" data-name="Waste Basket"><path class="cls-1" d="M332.16,292.35l-.06.24a.25.25,0,0,1,0,.07.64.64,0,0,1-.13.17,6.58,6.58,0,0,1-3,1.29,91.38,91.38,0,0,1-32.76,0,6.58,6.58,0,0,1-3-1.29.64.64,0,0,1-.13-.17.25.25,0,0,1,0-.07l-.06-.24c0-1.8,8.77-3.25,19.6-3.25S332.16,290.55,332.16,292.35Z"/><path class="cls-3" d="M312.56,296.6c-6.7,0-12.92-.57-16.63-1.52-2.38-.59-3.13-1.19-3.48-1.59a1.21,1.21,0,0,1-.26-.35l-.08-.14-.06-.17-.06-.24a1,1,0,0,1,0-.24c0-4.05,17.16-4.25,20.6-4.25s20.6.2,20.6,4.25a1,1,0,0,1,0,.24l-.06.24a2,2,0,0,1-.08.22.43.43,0,0,0,0,.07,1.72,1.72,0,0,1-.31.41c-.32.36-1.07,1-3.46,1.56C325.48,296,319.26,296.6,312.56,296.6Zm-18.4-4.28a7.91,7.91,0,0,0,2.26.83,90.5,90.5,0,0,0,32.27,0,8.61,8.61,0,0,0,2.28-.82c-1.49-1-8.3-2.23-18.41-2.23S295.65,291.34,294.16,292.32Zm38,0h0Z"/><path class="cls-3" d="M312.56,296.6c-6.7,0-12.92-.57-16.63-1.52-2.38-.59-3.13-1.19-3.48-1.59a1.21,1.21,0,0,1-.26-.35l-.08-.14-.06-.17-.06-.24a1,1,0,0,1,0-.24c0-4.05,17.16-4.25,20.6-4.25s20.6.2,20.6,4.25a1,1,0,0,1,0,.24l-.06.24a2,2,0,0,1-.08.22.43.43,0,0,0,0,.07,1.72,1.72,0,0,1-.31.41c-.32.36-1.07,1-3.46,1.56C325.48,296,319.26,296.6,312.56,296.6Zm-18.4-4.28a7.91,7.91,0,0,0,2.26.83,90.5,90.5,0,0,0,32.27,0,8.61,8.61,0,0,0,2.28-.82c-1.49-1-8.3-2.23-18.41-2.23S295.65,291.34,294.16,292.32Zm38,0h0Z"/><path class="cls-2" d="M328.94,294.12a91.38,91.38,0,0,1-32.76,0,92.62,92.62,0,0,1,32.76,0Z"/><path class="cls-1" d="M327.25,330.08a.22.22,0,0,1,0,.08c0,2.7-6.58,4.88-14.7,4.88s-14.7-2.18-14.7-4.88v-.05l-4.8-37.46a.64.64,0,0,0,.13.17c1.39,1.56,9.53,2.77,19.37,2.77s18-1.21,19.37-2.77a.64.64,0,0,0,.13-.17Z"/><path class="cls-3" d="M312.56,336c-7.8,0-15.7-2-15.7-5.88l-4.79-37.38a1,1,0,0,1,.7-1.09,1,1,0,0,1,1.15.45c1.06,1.06,8,2.45,18.64,2.45s17.71-1.41,18.62-2.43l0,0a1,1,0,0,1,1.85.64l-4.79,37.31v.07C328.26,334,320.36,336,312.56,336Zm-18.25-41.45,4.54,35.4a.49.49,0,0,1,0,.12c0,1.63,5.34,3.93,13.7,3.93s13.59-2.25,13.7-3.83a1.13,1.13,0,0,1,0-.26l4.54-35.35c-3.63,1.36-11.24,2-18.24,2S298,296,294.31,294.59Zm-.35-2.38Zm37.21,0Zm-37.28-.09Z"/></g><g id="Plant_2" data-name="Plant 2"><path class="cls-5" d="M53.54,171.1h-.06a1,1,0,0,1-.94-1l2.17-40.46a1,1,0,1,1,2,.1l-2.17,40.46A1,1,0,0,1,53.54,171.1Z"/><path class="cls-5" d="M53.84,165.41a1,1,0,0,1-.67-1.74l4.55-4.08a1,1,0,0,1,1.34,1.48l-4.55,4.09A1,1,0,0,1,53.84,165.41Z"/><path class="cls-5" d="M54.73,148.86a1,1,0,0,1-.74-.33l-4.7-5.22A1,1,0,1,1,50.78,142l4.69,5.22a1,1,0,0,1-.07,1.42A1,1,0,0,1,54.73,148.86Z"/><path class="cls-5" d="M54.73,148.86h0A6,6,0,0,1,49,142.58a1,1,0,0,1,1.05-.94,1,1,0,0,1,.95,1.05,4,4,0,0,0,3.74,4.17,1,1,0,0,1-.05,2Z"/><path class="cls-5" d="M54.08,165.42h-.29a1,1,0,1,1,.11-2,3.3,3.3,0,0,0,3.49-3.13,1,1,0,0,1,2,.1A5.33,5.33,0,0,1,54.08,165.42Z"/><path class="cls-5" d="M49.72,162.61a1,1,0,0,1-.75-.34l-4.08-4.54a1,1,0,0,1,1.49-1.34l4.08,4.55a1,1,0,0,1-.07,1.41A1,1,0,0,1,49.72,162.61Z"/><path class="cls-5" d="M49.72,162.61h0a5.33,5.33,0,0,1-5-5.6,1,1,0,0,1,2,.1,3.32,3.32,0,0,0,3.13,3.5,1,1,0,0,1-.05,2Z"/><path class="cls-5" d="M51,171.11a1,1,0,0,1-1-.85L47,150.91a1,1,0,1,1,2-.31L52,170a1,1,0,0,1-.84,1.14Z"/><rect class="cls-1" x="46.52" y="170.11" width="11.37" height="34.5"/><path class="cls-3" d="M57.89,205.61H46.52a1,1,0,0,1-1-1v-34.5a1,1,0,0,1,1-1H57.89a1,1,0,0,1,1,1v34.5A1,1,0,0,1,57.89,205.61Zm-10.37-2h9.37v-32.5H47.52Z"/></g><g id="Coffee"><polygon class="cls-1" points="284.85 202.42 286.11 184.15 268.39 184.15 269.65 202.42 284.85 202.42"/><path class="cls-3" d="M284.85,203.42h-15.2a1,1,0,0,1-1-.93l-1.26-18.27a1,1,0,0,1,1-1.07h17.72a1,1,0,0,1,.73.32,1,1,0,0,1,.27.75l-1.26,18.27A1,1,0,0,1,284.85,203.42Zm-14.27-2h13.34L285,185.15H269.46Z"/><path class="cls-3" d="M286.11,198.85a1,1,0,0,1,0-2,5.85,5.85,0,0,0,0-11.7,1,1,0,0,1,0-2,7.85,7.85,0,0,1,0,15.7Z"/><path class="cls-2" d="M273.28,181a1,1,0,0,1-1-1,11,11,0,0,1,3.84-8.36,1,1,0,0,1,1.41.12,1,1,0,0,1-.11,1.41,8.94,8.94,0,0,0-3.14,6.83A1,1,0,0,1,273.28,181Z"/><path class="cls-2" d="M281.83,181a1,1,0,0,1-1-1,11,11,0,0,1,3.84-8.36,1,1,0,0,1,1.41.12,1,1,0,0,1-.11,1.41,8.94,8.94,0,0,0-3.14,6.83A1,1,0,0,1,281.83,181Z"/><path class="cls-2" d="M276.77,173.41a1,1,0,0,1-.76-.36,1,1,0,0,1,.11-1.41,8.94,8.94,0,0,0,3.14-6.83,1,1,0,0,1,2,0,11,11,0,0,1-3.84,8.36A1,1,0,0,1,276.77,173.41Z"/></g><g id="Camera"><rect class="cls-1" x="362.36" y="173.2" width="31.11" height="16.07"/><rect class="cls-4" x="362.36" y="177.1" width="8.05" height="8.05"/><rect class="cls-4" x="385.42" y="177.1" width="8.05" height="8.05"/><path class="cls-3" d="M393.47,190.27H362.36a1,1,0,0,1-1-1V173.2a1,1,0,0,1,1-1h31.11a1,1,0,0,1,1,1v16.07A1,1,0,0,1,393.47,190.27Zm-30.11-2h29.11V174.2H363.36Z"/><path class="cls-3" d="M393.47,186.37H362.36a1,1,0,0,1-1-1V177.1a1,1,0,0,1,1-1h31.11a1,1,0,0,1,1,1v8.27A1,1,0,0,1,393.47,186.37Zm-30.11-2h29.11V178.1H363.36Z"/><circle class="cls-1" cx="377.91" cy="181.24" r="8.03"/><path class="cls-3" d="M377.91,190.27a9,9,0,1,1,9-9A9,9,0,0,1,377.91,190.27Zm0-16.07a7,7,0,1,0,7,7A7,7,0,0,0,377.91,174.2Z"/><path class="cls-3" d="M377.91,186.37a5.14,5.14,0,1,1,5.14-5.13A5.13,5.13,0,0,1,377.91,186.37Zm0-8.27a3.14,3.14,0,1,0,3.14,3.14A3.14,3.14,0,0,0,377.91,178.1Z"/><rect class="cls-1" x="386.94" y="170.09" width="4.27" height="3.12"/><path class="cls-3" d="M391.21,174.2h-4.27a1,1,0,0,1-1-1v-3.11a1,1,0,0,1,1-1h4.27a1,1,0,0,1,1,1v3.11A1,1,0,0,1,391.21,174.2Zm-3.27-2h2.27v-1.11h-2.27Z"/><rect class="cls-1" x="364.18" y="170.09" width="9.6" height="3.12"/><path class="cls-3" d="M373.78,174.2h-9.6a1,1,0,0,1-1-1v-3.11a1,1,0,0,1,1-1h9.6a1,1,0,0,1,1,1v3.11A1,1,0,0,1,373.78,174.2Zm-8.6-2h7.6v-1.11h-7.6Z"/><polyline class="cls-1" points="377.91 168.22 374.34 168.22 372.6 173.21 383.23 173.21 381.49 168.22 377.91 168.22"/><path class="cls-3" d="M383.23,174.2H372.6a1,1,0,0,1-1-1.33l1.74-5a1,1,0,0,1,.95-.67h7.15a1,1,0,0,1,.94.67l1.74,5a1,1,0,0,1-.13.91A1,1,0,0,1,383.23,174.2Zm-9.23-2h7.82l-1-3h-5.73Z"/></g></g></svg>