<svg xmlns="http://www.w3.org/2000/svg" viewBox="0 0 1196.04 354.17"><defs><style>.cls-1{fill:#444545;}.cls-2{fill:#fff;}.cls-3{fill:#f4848c;}.cls-4{fill:#90d1b8;}.cls-5{fill:#f9f5b3;}.cls-6{fill:#a6d3f1;}.cls-7{fill:#e0e0e0;}.cls-8{fill:#59595a;}</style></defs><title>banner-xcode-marketing</title><g id="Premade_Scenes" data-name="Premade Scenes"><g id="Desk_1" data-name="Desk 1"><path class="cls-1" d="M790.06,211.34a1,1,0,0,1,1,1v1h354.32v-1a1,1,0,0,1,1-1Zm117.85,0a1,1,0,0,1,1,1v1h127.38v-1a1,1,0,0,1,1-1Zm0,0a1,1,0,0,1,1,1v1h127.38v-1a1,1,0,0,1,1-1Zm0,0a1,1,0,0,1,1,1v1h127.38v-1a1,1,0,0,1,1-1Zm255.2-5.38a1.34,1.34,0,0,0-.07-.18s0,0,0,0l0-.09a1,1,0,0,0-.83-.44H783.05a1,1,0,0,0-.83.44l-.05.09s0,0,0,0a1.34,1.34,0,0,0-.07.18.84.84,0,0,0,0,.27v6.11a1,1,0,0,0,1,1h379.1a1,1,0,0,0,1-1v-6.11A.84.84,0,0,0,1163.11,206Zm-2,5.38H784.05v-4.11h377.1Zm-253.24,0a1,1,0,0,1,1,1v1h127.38v-1a1,1,0,0,1,1-1Zm0,0a1,1,0,0,1,1,1v1h127.38v-1a1,1,0,0,1,1-1Zm0,0a1,1,0,0,1,1,1v1h127.38v-1a1,1,0,0,1,1-1Zm-117.85,0a1,1,0,0,1,1,1v1h354.32v-1a1,1,0,0,1,1-1Z"/><rect class="cls-2" x="784.05" y="207.23" width="377.1" height="4.11"/><path class="cls-1" d="M1163.11,206a1.34,1.34,0,0,0-.07-.18s0,0,0,0l0-.09L1157.26,195a1,1,0,0,0-.88-.52H788.82a1,1,0,0,0-.88.52l-5.72,10.68-.05.09s0,0,0,0a1.34,1.34,0,0,0-.07.18.84.84,0,0,0,0,.27,1,1,0,0,0,.14.51,1,1,0,0,0,.86.49h379.1a1,1,0,0,0,.86-.49,1,1,0,0,0,.14-.51A.84.84,0,0,0,1163.11,206Zm-378.39-.73,4.7-8.76h366.36l4.7,8.76Z"/><polygon class="cls-2" points="1160.48 205.23 784.72 205.23 789.42 196.47 1155.78 196.47 1160.48 205.23"/><path class="cls-1" d="M906.91,213.34V226.6H846.34a.84.84,0,0,1,.27,0l7.23,2h54.07a.69.69,0,0,0,.2,0,.2.2,0,0,0,.1,0,.37.37,0,0,0,.16-.07.7.7,0,0,0,.25-.17l.06-.07a.36.36,0,0,0,.07-.1.75.75,0,0,0,.07-.12,1,1,0,0,0,.09-.42V213.34Zm1-2h-109a1,1,0,0,0-1,1V227.6a1,1,0,0,0,1,1h109a.69.69,0,0,0,.2,0,.2.2,0,0,0,.1,0,.37.37,0,0,0,.16-.07.7.7,0,0,0,.25-.17l.06-.07a.36.36,0,0,0,.07-.1.75.75,0,0,0,.07-.12,1,1,0,0,0,.09-.42V212.34A1,1,0,0,0,907.91,211.34Zm-1,15.26h-107V213.34h107Zm0-13.26V226.6H846.34a.84.84,0,0,1,.27,0l7.23,2h54.07a.69.69,0,0,0,.2,0,.2.2,0,0,0,.1,0,.37.37,0,0,0,.16-.07.7.7,0,0,0,.25-.17l.06-.07a.36.36,0,0,0,.07-.1.75.75,0,0,0,.07-.12,1,1,0,0,0,.09-.42V213.34Z"/><rect class="cls-2" x="799.91" y="213.34" width="107" height="13.26"/><path class="cls-1" d="M1146.38,211.34H1037.29a1,1,0,0,0-1,1V227.6a1,1,0,0,0,.09.42.75.75,0,0,0,.07.12.36.36,0,0,0,.07.1l.06.07a.7.7,0,0,0,.25.17.37.37,0,0,0,.16.07s0,0,0,0a.73.73,0,0,0,.25,0h109.09a1,1,0,0,0,1-1V212.34A1,1,0,0,0,1146.38,211.34Zm-1,15.26H1038.29V213.34h107.09Z"/><rect class="cls-2" x="1038.29" y="213.34" width="107.09" height="13.26"/><path class="cls-1" d="M791.06,212.34V334.43a1,1,0,1,1-2,0V212.34C789.06,211.79,791.06,211.79,791.06,212.34Z"/><path class="cls-1" d="M799.82,212.34V334.43a1,1,0,0,1-2,0V212.34C797.82,211.79,799.82,211.81,799.82,212.34Z"/><rect class="cls-2" x="791.06" y="213.34" width="6.76" height="120.09"/><path class="cls-1" d="M799.82,334.43a1,1,0,0,1-1,1h-8.76a1,1,0,0,1,0-2h8.76A1,1,0,0,1,799.82,334.43Z"/><path class="cls-1" d="M804.29,227.6v94.93a1,1,0,0,1-2,0V227.6C802.29,227.05,804.29,227.05,804.29,227.6Z"/><rect class="cls-2" x="799.82" y="228.6" width="2.47" height="92.93"/><path class="cls-1" d="M804.29,322.53a1,1,0,0,1-1,1h-4.47c-.55,0-.55-2,0-2h4.47A1,1,0,0,1,804.29,322.53Z"/><path class="cls-1" d="M1156.14,212.34V334.43a1,1,0,1,1-2,0V212.34C1154.14,211.79,1156.14,211.79,1156.14,212.34Z"/><path class="cls-1" d="M1147.38,212.34V334.43a1,1,0,1,1-2,0V212.34C1145.38,211.79,1147.38,211.79,1147.38,212.34Z"/><rect class="cls-2" x="1147.38" y="213.34" width="6.76" height="120.09"/><path class="cls-1" d="M1156.14,334.43a1,1,0,0,1-1,1h-8.76a1,1,0,0,1,0-2h8.76A1,1,0,0,1,1156.14,334.43Z"/><path class="cls-1" d="M1142.91,227.6v94.93a1,1,0,0,1-2,0V227.6C1140.91,227.05,1142.91,227.05,1142.91,227.6Z"/><rect class="cls-2" x="1142.91" y="228.6" width="2.47" height="92.93"/><path class="cls-1" d="M1147.38,322.53a1,1,0,0,1-1,1h-4.47a1,1,0,0,1,0-2h4.47A1,1,0,0,1,1147.38,322.53Z"/><polygon class="cls-2" points="914.42 213.34 908.91 223.62 908.91 213.34 914.42 213.34"/><path class="cls-1" d="M917,212.81l-.28.53L908.82,228l0,0a.18.18,0,0,1,0,.07.36.36,0,0,1-.07.1l-.06.07a.7.7,0,0,1-.25.17.37.37,0,0,1-.16.07.2.2,0,0,1-.1,0,.69.69,0,0,1-.2,0,1,1,0,0,1-.88-1.47l1.88-3.51,5.51-10.28.79-1.47c.18-.34,1.2-.49,1.35-.41A1,1,0,0,1,917,212.81Z"/><polygon class="cls-2" points="1036.29 213.34 1036.29 223.62 1030.78 213.34 1036.29 213.34"/><path class="cls-1" d="M1037.76,228.48a1,1,0,0,1-.47.12.73.73,0,0,1-.25,0s0,0,0,0a.37.37,0,0,1-.16-.07.7.7,0,0,1-.25-.17l-.06-.07a.36.36,0,0,1-.07-.1.18.18,0,0,1,0-.07l0,0-7.87-14.68-.28-.53a1,1,0,0,1,.41-1.35c.15-.08,1.17.07,1.35.41l.79,1.47,5.51,10.28,1.88,3.51A1,1,0,0,1,1037.76,228.48Z"/></g><g id="Desk_Lamp" data-name="Desk Lamp"><path class="cls-1" d="M827.66,201.48h-33a1,1,0,0,1,0-2h33a1,1,0,0,1,0,2Z"/><path class="cls-1" d="M811.13,201.48h-8.25a1,1,0,0,1-1-1,5.13,5.13,0,0,1,10.25,0A1,1,0,0,1,811.13,201.48Zm-7.09-2H810a3.13,3.13,0,0,0-5.93,0Z"/><path class="cls-1" d="M805.44,192.56a1,1,0,0,1-.71-.29L783,170.52a1,1,0,0,1,0-1.41,1,1,0,0,1,1.42,0l21.74,21.75a1,1,0,0,1,0,1.41A1,1,0,0,1,805.44,192.56Z"/><path class="cls-1" d="M808.55,189.45a1,1,0,0,1-.71-.29l-21.75-21.75a1,1,0,0,1,0-1.41,1,1,0,0,1,1.42,0l21.75,21.75a1,1,0,0,1,0,1.41A1,1,0,0,1,808.55,189.45Z"/><path class="cls-1" d="M783.69,167.7a1,1,0,0,1-.71-.29,1,1,0,0,1,0-1.41l28.17-28.17a1,1,0,1,1,1.41,1.41L784.4,167.41A1,1,0,0,1,783.69,167.7Z"/><path class="cls-1" d="M786.8,170.82a1,1,0,0,1-.71-.3,1,1,0,0,1,0-1.41l28.17-28.17a1,1,0,1,1,1.42,1.42l-28.17,28.16A1,1,0,0,1,786.8,170.82Z"/><path class="cls-1" d="M785.25,171.46a3.2,3.2,0,1,1,2.26-.94A3.18,3.18,0,0,1,785.25,171.46Zm0-4.4a1.2,1.2,0,0,0-.85,2.05,1.23,1.23,0,0,0,1.69,0,1.2,1.2,0,0,0-.84-2.05Z"/><path class="cls-1" d="M807,193.21a3.16,3.16,0,0,1-2.26-.94,3.19,3.19,0,0,1,0-4.52,3.27,3.27,0,0,1,4.53,0,3.2,3.2,0,0,1-2.27,5.46Zm0-4.4a1.19,1.19,0,0,0-.85.35,1.2,1.2,0,0,0,1.7,1.7,1.2,1.2,0,0,0,0-1.7A1.17,1.17,0,0,0,807,188.81Z"/><path class="cls-1" d="M813.41,143.29a3.19,3.19,0,0,1-2.26-.93h0a3.22,3.22,0,1,1,2.26.93Zm-.85-2.35a1.2,1.2,0,1,0,0-1.7,1.22,1.22,0,0,0,0,1.7Z"/><polygon class="cls-2" points="841.55 131.39 825.64 147.3 820.39 136.24 819.45 134.25 828.5 125.2 841.55 131.39"/><rect class="cls-2" x="814.56" y="122.44" width="12.8" height="8.54" transform="translate(150.86 617.62) rotate(-45)"/><path class="cls-1" d="M819.45,137.46a3.16,3.16,0,0,1-2.26-.94,3.2,3.2,0,0,1,0-4.53,1,1,0,0,1,1.41,0l1.56,1.56a.92.92,0,0,1,.19.28l.94,2a1,1,0,0,1-.46,1.33A3.2,3.2,0,0,1,819.45,137.46Zm-1.18-3a1.12,1.12,0,0,0,.33.61,1,1,0,0,0,.23.19l-.21-.45Z"/><path class="cls-1" d="M819.45,135.26a1,1,0,0,1-.71-.3l-6-6a1,1,0,0,1,0-1.42l9-9.05a1,1,0,0,1,.71-.3h0a1,1,0,0,1,.7.3l6,6a1,1,0,0,1,0,1.42L820.16,135A1,1,0,0,1,819.45,135.26Zm-4.62-7,4.62,4.62,7.64-7.64-4.62-4.62Z"/><path class="cls-1" d="M825.64,148.3h-.17a1,1,0,0,1-.73-.56l-6.19-13a1,1,0,0,1,.19-1.13l9.06-9.06a1,1,0,0,1,1.13-.19L842,130.49a1,1,0,0,1,.28,1.61L826.35,148A1,1,0,0,1,825.64,148.3Zm-5-13.84,5.27,11.13,13.91-13.9-11.13-5.28Z"/><path class="cls-1" d="M815.17,139.53a1,1,0,0,1-.7-1.71l2.72-2.72a1,1,0,0,1,1.41,0,1,1,0,0,1,0,1.42l-2.72,2.72A1,1,0,0,1,815.17,139.53Z"/><path class="cls-1" d="M807,197.36a1,1,0,0,1-1-1v-4.15a1,1,0,0,1,2,0v4.15A1,1,0,0,1,807,197.36Z"/></g><g id="Red_Trees" data-name="Red Trees"><rect class="cls-2" x="859.11" y="38.86" width="54.44" height="54.44"/><path class="cls-1" d="M913.59,37.92H858.84a1,1,0,0,0-1,1V93.67a1,1,0,0,0,1,1h54.75a1,1,0,0,0,1-1V38.92A1,1,0,0,0,913.59,37.92Zm-1,54.75H859.84V39.92h52.75Z"/><rect class="cls-3" x="864.63" y="44.72" width="43.16" height="43.16"/><path class="cls-2" d="M893.61,88.88a1,1,0,0,1-1-1V81.41a1,1,0,1,1,2,0v6.47A1,1,0,0,1,893.61,88.88Z"/><path class="cls-2" d="M891.3,77l-.92-2.14-.55-1.26-.54-1.26-6.85-15.89a1,1,0,0,0-1.84,0L871.75,77a1,1,0,0,0,.08,1,1,1,0,0,0,.84.45h17.71a1,1,0,0,0,.92-1.4Zm-17.11-.6,7.33-17,6.68,15.5.54,1.26.12.27Z"/><polygon class="cls-3" points="886.46 81.41 893.61 64.83 900.76 81.41 886.46 81.41"/><path class="cls-2" d="M901.67,81l-7.14-16.58a1,1,0,0,0-1.84,0l-3.4,7.89-1.09,2.53-.66,1.53-.86,2L885.55,81a1,1,0,0,0,.08.95,1,1,0,0,0,.83.45h14.3a1,1,0,0,0,.83-.45A1,1,0,0,0,901.67,81ZM888,80.41l.88-2,1.52-3.54,3.23-7.49,5.63,13.06Z"/><path class="cls-2" d="M881.52,88.88a1,1,0,0,1-1-1V77.38a1,1,0,0,1,2,0v10.5A1,1,0,0,1,881.52,88.88Z"/><path class="cls-1" d="M908.51,39.63a1,1,0,0,1-1.42,0L886.21,18.75l-.59.59-.76.77L867.05,37.92l-1.71,1.71a1,1,0,0,1-1.42-1.42l20.29-20.29,1-1a1,1,0,0,0-.09.42,1.09,1.09,0,0,0,2.17,0,1,1,0,0,0-.09-.42l1,1,.77.76,19.23,19.23.29.29A1,1,0,0,1,908.51,39.63Z"/><path class="cls-2" d="M886.21,15.25a2.09,2.09,0,0,0-2.08,2.09,2.2,2.2,0,0,0,.08.58,2.09,2.09,0,0,0,1.41,1.42,2.22,2.22,0,0,0,1.18,0,2.11,2.11,0,0,0,1.42-1.41,2.21,2.21,0,0,0,.08-.59A2.09,2.09,0,0,0,886.21,15.25Zm1.09,2.09a1.09,1.09,0,0,1-2.17,0,1,1,0,0,1,.09-.42,0,0,0,0,1,0,0l.27-.27a1,1,0,0,1,1.42,0l.29.29A1,1,0,0,1,887.3,17.34Z"/><path class="cls-1" d="M886.21,14.25a3.09,3.09,0,0,0-2.77,4.44,3.08,3.08,0,0,0,2.77,1.73,3.09,3.09,0,1,0,0-6.17Zm1.09,3.09a1.09,1.09,0,0,1-2.17,0,1,1,0,0,1,.09-.42,0,0,0,0,1,0,0,1.07,1.07,0,0,1,2,0A1,1,0,0,1,887.3,17.34Z"/></g><g id="Plant_1" data-name="Plant 1"><path class="cls-4" d="M1072.71,173.34a1,1,0,0,1-1-1V146.09a1,1,0,1,1,2,0v26.25A1,1,0,0,1,1072.71,173.34Z"/><path class="cls-4" d="M1080.71,173.34a1,1,0,0,1-1-1v-7.12a1,1,0,0,1,2,0v7.12A1,1,0,0,1,1080.71,173.34Z"/><ellipse class="cls-4" cx="1070" cy="143.38" rx="1.93" ry="4.88" transform="translate(212.01 798.6) rotate(-45)"/><ellipse class="cls-4" cx="1083.42" cy="162.51" rx="4.88" ry="1.93" transform="translate(202.41 813.69) rotate(-45)"/><path class="cls-4" d="M1083.13,149.34a6.43,6.43,0,0,1-6.42,6.41,1,1,0,0,1-1-1,6.42,6.42,0,0,1,6.42-6.41A1,1,0,0,1,1083.13,149.34Z"/><ellipse class="cls-4" cx="1070" cy="157.84" rx="1.93" ry="4.88" transform="translate(201.79 802.84) rotate(-45)"/><path class="cls-4" d="M1076.71,173.34a1,1,0,0,1-1-1V154.75a1,1,0,0,1,2,0v17.59A1,1,0,0,1,1076.71,173.34Z"/><rect class="cls-2" x="1067.84" y="172.34" width="17.76" height="26.63"/><path class="cls-1" d="M1085.59,200h-17.75a1,1,0,0,1-1-1V172.34a1,1,0,0,1,1-1h17.75a1,1,0,0,1,1,1V199A1,1,0,0,1,1085.59,200Zm-16.75-2h15.75V173.34h-15.75Z"/></g><g id="Speaker"><rect class="cls-2" x="1028.18" y="170.65" width="18.21" height="27.36"/><path class="cls-1" d="M1046.39,199h-18.21a1,1,0,0,1-1-1V170.65a1,1,0,0,1,1-1h18.21a1,1,0,0,1,1,1V198A1,1,0,0,1,1046.39,199Zm-17.21-2h16.21V171.65h-16.21Z"/><path class="cls-1" d="M1037.28,194.46a5.55,5.55,0,1,1,5.55-5.55A5.56,5.56,0,0,1,1037.28,194.46Zm0-9.1a3.55,3.55,0,1,0,3.55,3.55A3.56,3.56,0,0,0,1037.28,185.36Z"/><path class="cls-1" d="M1037.28,181.68a3.58,3.58,0,1,1,3.58-3.58A3.59,3.59,0,0,1,1037.28,181.68Zm0-5.16a1.58,1.58,0,1,0,1.58,1.58A1.58,1.58,0,0,0,1037.28,176.52Z"/></g><g id="Speaker-2" data-name="Speaker"><rect class="cls-2" x="898.81" y="170.65" width="18.21" height="27.36"/><path class="cls-1" d="M917,199h-18.2a1,1,0,0,1-1-1V170.65a1,1,0,0,1,1-1H917a1,1,0,0,1,1,1V198A1,1,0,0,1,917,199Zm-17.2-2H916V171.65h-16.2Z"/><path class="cls-1" d="M907.91,194.46a5.55,5.55,0,1,1,5.55-5.55A5.56,5.56,0,0,1,907.91,194.46Zm0-9.1a3.55,3.55,0,1,0,3.55,3.55A3.55,3.55,0,0,0,907.91,185.36Z"/><path class="cls-1" d="M907.91,181.68a3.58,3.58,0,1,1,3.58-3.58A3.59,3.59,0,0,1,907.91,181.68Zm0-5.16a1.58,1.58,0,1,0,1.58,1.58A1.58,1.58,0,0,0,907.91,176.52Z"/></g><g id="Outlet"><rect class="cls-2" x="1098.28" y="244.36" width="14.75" height="21.94"/><path class="cls-1" d="M1113.19,267.72h-15a1,1,0,0,1-1-1V244.11a1,1,0,0,1,1-1h15a1,1,0,0,1,1,1v22.61A1,1,0,0,1,1113.19,267.72Zm-14-2h13V245.11h-13Z"/><path class="cls-1" d="M1103.79,253.65a1,1,0,0,1-1-1v-2.81a1,1,0,1,1,2,0v2.81A1,1,0,0,1,1103.79,253.65Z"/><path class="cls-1" d="M1107.6,253.65a1,1,0,0,1-1-1v-2.81a1,1,0,1,1,2,0v2.81A1,1,0,0,1,1107.6,253.65Z"/><path class="cls-1" d="M1103.79,262a1,1,0,0,1-1-1v-2.82a1,1,0,0,1,2,0V261A1,1,0,0,1,1103.79,262Z"/><path class="cls-1" d="M1107.6,262a1,1,0,0,1-1-1v-2.82a1,1,0,0,1,2,0V261A1,1,0,0,1,1107.6,262Z"/></g><g id="Wire"><path class="cls-1" d="M1100,252.25a24.67,24.67,0,0,1-24.64-24.64,1,1,0,1,1,2,0A22.66,22.66,0,0,0,1100,250.25a1,1,0,0,1,0,2Z"/><path class="cls-2" d="M1107.62,248.69v5.11h-5.11a2.56,2.56,0,0,1,0-5.11Z"/><path class="cls-1" d="M1107.62,254.8h-5.11a3.56,3.56,0,0,1,0-7.11h5.11a1,1,0,0,1,1,1v5.11A1,1,0,0,1,1107.62,254.8Zm-5.11-5.11a1.56,1.56,0,0,0,0,3.11h4.11v-3.11Z"/></g><g id="Pen_Holder" data-name="Pen Holder"><rect class="cls-2" x="842.27" y="179.48" width="14.02" height="20.04"/><path class="cls-5" d="M850.72,180.48a1,1,0,0,1-.37-.07,1,1,0,0,1-.56-1.3l3.81-9.51a1,1,0,1,1,1.86.74l-3.81,9.51A1,1,0,0,1,850.72,180.48Z"/><path class="cls-6" d="M845.11,180.48a1,1,0,0,1-.93-.63l-3.77-9.52a1,1,0,0,1,1.86-.74l3.77,9.52a1,1,0,0,1-.56,1.3A1,1,0,0,1,845.11,180.48Z"/><path class="cls-3" d="M853.54,180.48a1,1,0,0,1-.87-1.5l6-10.34a1,1,0,0,1,1.74,1l-6,10.34A1,1,0,0,1,853.54,180.48Z"/><path class="cls-1" d="M856.29,200.52h-14a1,1,0,0,1-1-1v-20a1,1,0,0,1,1-1h14a1,1,0,0,1,1,1v20A1,1,0,0,1,856.29,200.52Zm-13-2h12v-18h-12Z"/></g><g id="Waste_Basket" data-name="Waste Basket"><path class="cls-2" d="M855.32,288.93l-.06.24a.25.25,0,0,1,0,.07.64.64,0,0,1-.13.17,6.58,6.58,0,0,1-3,1.29,91.38,91.38,0,0,1-32.76,0,6.58,6.58,0,0,1-3-1.29.64.64,0,0,1-.13-.17.25.25,0,0,1,0-.07l-.06-.24c0-1.8,8.77-3.25,19.6-3.25S855.32,287.13,855.32,288.93Z"/><path class="cls-1" d="M835.72,293.18c-6.7,0-12.91-.57-16.62-1.51-2.39-.6-3.14-1.2-3.49-1.6a1.21,1.21,0,0,1-.26-.35l-.08-.14-.06-.17-.06-.24a1,1,0,0,1,0-.24c0-4.05,17.16-4.25,20.6-4.25s20.6.2,20.6,4.25a1,1,0,0,1,0,.24l-.06.24a.65.65,0,0,1-.08.22.25.25,0,0,1,0,.07,1.49,1.49,0,0,1-.31.41c-.32.36-1.07,1-3.45,1.56C848.64,292.61,842.43,293.18,835.72,293.18Zm-18.4-4.28a7.89,7.89,0,0,0,2.27.83c3.56.91,9.59,1.45,16.13,1.45s12.58-.54,16.14-1.45a8.48,8.48,0,0,0,2.27-.82c-1.48-1-8.3-2.23-18.41-2.23S818.81,287.93,817.32,288.9Zm38,0h0Z"/><path class="cls-1" d="M835.72,293.18c-6.7,0-12.91-.57-16.62-1.51-2.39-.6-3.14-1.2-3.49-1.6a1.21,1.21,0,0,1-.26-.35l-.08-.14-.06-.17-.06-.24a1,1,0,0,1,0-.24c0-4.05,17.16-4.25,20.6-4.25s20.6.2,20.6,4.25a1,1,0,0,1,0,.24l-.06.24a.65.65,0,0,1-.08.22.25.25,0,0,1,0,.07,1.49,1.49,0,0,1-.31.41c-.32.36-1.07,1-3.45,1.56C848.64,292.61,842.43,293.18,835.72,293.18Zm-18.4-4.28a7.89,7.89,0,0,0,2.27.83c3.56.91,9.59,1.45,16.13,1.45s12.58-.54,16.14-1.45a8.48,8.48,0,0,0,2.27-.82c-1.48-1-8.3-2.23-18.41-2.23S818.81,287.93,817.32,288.9Zm38,0h0Z"/><path class="cls-7" d="M852.1,290.7a91.38,91.38,0,0,1-32.76,0,92.62,92.62,0,0,1,32.76,0Z"/><path class="cls-2" d="M850.41,326.66a.22.22,0,0,1,0,.08c0,2.7-6.58,4.88-14.7,4.88s-14.7-2.18-14.7-4.88v-.05l-4.8-37.46a.64.64,0,0,0,.13.17c1.39,1.56,9.53,2.77,19.37,2.77s18-1.21,19.37-2.77a.64.64,0,0,0,.13-.17Z"/><path class="cls-1" d="M835.72,332.62c-7.8,0-15.7-2-15.7-5.88l-4.79-37.38a1,1,0,0,1,1.85-.64c1.06,1.06,8,2.45,18.64,2.45s17.71-1.41,18.63-2.43v0a1,1,0,0,1,1.85.64l-4.79,37.31v.07C851.42,330.6,843.52,332.62,835.72,332.62Zm-18.24-41.45,4.53,35.4a.49.49,0,0,1,0,.12c0,1.63,5.34,3.93,13.7,3.93s13.59-2.25,13.7-3.83a1.13,1.13,0,0,1,0-.26L854,291.18c-3.63,1.36-11.24,2-18.24,2S821.14,292.54,817.48,291.17Zm-.36-2.38Zm37.21,0Zm-37.28-.09Z"/></g><g id="Red_Trees-2" data-name="Red Trees"><rect class="cls-2" x="1055.12" y="38.86" width="54.44" height="54.44"/><path class="cls-1" d="M1109.6,37.92h-54.75a1,1,0,0,0-1,1V93.67a1,1,0,0,0,1,1h54.75a1,1,0,0,0,1-1V38.92A1,1,0,0,0,1109.6,37.92Zm-1,54.75h-52.75V39.92h52.75Z"/><rect class="cls-3" x="1060.64" y="44.72" width="43.16" height="43.16"/><path class="cls-2" d="M1089.62,88.88a1,1,0,0,1-1-1V81.41a1,1,0,0,1,2,0v6.47A1,1,0,0,1,1089.62,88.88Z"/><path class="cls-2" d="M1087.31,77l-.92-2.14-.55-1.26-.54-1.26-6.85-15.89a1,1,0,0,0-1.84,0L1067.76,77a1,1,0,0,0,.08,1,1,1,0,0,0,.84.45h17.71a1,1,0,0,0,.92-1.4Zm-17.11-.6,7.33-17,6.68,15.5.54,1.26.12.27Z"/><polygon class="cls-3" points="1082.47 81.41 1089.62 64.83 1096.77 81.41 1082.47 81.41"/><path class="cls-2" d="M1097.68,81l-7.14-16.58a1,1,0,0,0-1.84,0l-3.4,7.89-1.09,2.53-.66,1.53-.86,2L1081.56,81a1,1,0,0,0,.08.95,1,1,0,0,0,.83.45h14.3a1,1,0,0,0,.83-.45A1,1,0,0,0,1097.68,81Zm-13.69-.6.88-2,1.52-3.54,3.23-7.49,5.63,13.06Z"/><path class="cls-2" d="M1077.53,88.88a1,1,0,0,1-1-1V77.38a1,1,0,1,1,2,0v10.5A1,1,0,0,1,1077.53,88.88Z"/><path class="cls-1" d="M1104.52,39.63a1,1,0,0,1-1.42,0l-20.88-20.88-.59.59-.76.77-17.81,17.81-1.71,1.71a1,1,0,1,1-1.42-1.42l20.29-20.29,1-1a1,1,0,0,0-.09.42,1.09,1.09,0,0,0,2.17,0,1,1,0,0,0-.09-.42l1,1,.77.76,19.23,19.23.29.29A1,1,0,0,1,1104.52,39.63Z"/><path class="cls-2" d="M1082.22,15.25a2.09,2.09,0,0,0-2.08,2.09,2.2,2.2,0,0,0,.08.58,2.09,2.09,0,0,0,1.41,1.42,2.22,2.22,0,0,0,1.18,0,2.11,2.11,0,0,0,1.42-1.41,2.21,2.21,0,0,0,.08-.59A2.09,2.09,0,0,0,1082.22,15.25Zm1.09,2.09a1.09,1.09,0,0,1-2.17,0,1,1,0,0,1,.09-.42,0,0,0,0,1,0,0l.27-.27a1,1,0,0,1,1.42,0l.29.29A1,1,0,0,1,1083.31,17.34Z"/><path class="cls-1" d="M1082.22,14.25a3.09,3.09,0,0,0-2.77,4.44,3.08,3.08,0,0,0,2.77,1.73,3.09,3.09,0,1,0,0-6.17Zm1.09,3.09a1.09,1.09,0,0,1-2.17,0,1,1,0,0,1,.09-.42,0,0,0,0,1,0,0,1.07,1.07,0,0,1,2,0A1,1,0,0,1,1083.31,17.34Z"/></g><g id="Blue_Trees" data-name="Blue Trees"><rect class="cls-2" x="1054.7" y="38.7" width="54.75" height="54.75"/><path class="cls-1" d="M1109.45,94.45H1054.7a1,1,0,0,1-1-1V38.7a1,1,0,0,1,1-1h54.75a1,1,0,0,1,1,1V93.45A1,1,0,0,1,1109.45,94.45Zm-53.75-2h52.75V39.7H1055.7Z"/><rect class="cls-6" x="1060.49" y="44.5" width="43.16" height="43.16"/><path class="cls-2" d="M1072.48,88.66a1,1,0,0,1-1-1V77.6a1,1,0,1,1,2,0V87.66A1,1,0,0,1,1072.48,88.66Z"/><path class="cls-2" d="M1072.48,78.62a6.37,6.37,0,1,1,6.37-6.36A6.37,6.37,0,0,1,1072.48,78.62Zm0-10.73a4.37,4.37,0,1,0,4.37,4.37A4.37,4.37,0,0,0,1072.48,67.89Z"/><path class="cls-2" d="M1089.4,88.66a1,1,0,0,1-1-1V66.08a1,1,0,1,1,2,0V87.66A1,1,0,0,1,1089.4,88.66Z"/><path class="cls-2" d="M1089.4,75.26a1,1,0,0,1-.71-.3l-4-4a1,1,0,0,1,0-1.41,1,1,0,0,1,1.42,0l4,4a1,1,0,0,1-.71,1.71Z"/><path class="cls-2" d="M1089.4,67.08a9.25,9.25,0,1,1,9.25-9.25A9.26,9.26,0,0,1,1089.4,67.08Zm0-16.5a7.25,7.25,0,1,0,7.25,7.25A7.26,7.26,0,0,0,1089.4,50.58Z"/><path class="cls-2" d="M1089.4,80.32a1,1,0,0,1-.71-.29,1,1,0,0,1,0-1.42l3.07-3.06a1,1,0,1,1,1.41,1.41L1090.11,80A1,1,0,0,1,1089.4,80.32Z"/></g><g id="Laptop"><rect class="cls-7" x="937.48" y="196.33" width="70.23" height="3.99"/><polygon class="cls-7" points="940.91 189.99 937.48 196.33 1007.71 196.33 1004.29 189.99 940.91 189.99"/><path class="cls-2" d="M1007.71,197.33H937.48a1,1,0,0,1-.86-.49,1,1,0,0,1,0-1l3.43-6.33a1,1,0,0,1,.88-.53h63.38a1,1,0,0,1,.88.53l3.42,6.33a1,1,0,0,1,0,1A1,1,0,0,1,1007.71,197.33Zm-68.55-2H1006l-2.34-4.34H941.5Z"/><rect class="cls-1" x="940.91" y="145.93" width="63.38" height="44.06"/><path class="cls-1" d="M1004.29,191H940.91a1,1,0,0,1-1-1V145.93a1,1,0,0,1,1-1h63.38a1,1,0,0,1,1,1V190A1,1,0,0,1,1004.29,191Zm-62.38-2h61.38V146.93H941.91Z"/><path class="cls-1" d="M1007.71,197.33H937.48a1,1,0,0,1-.86-.49,1,1,0,0,1,0-1l3.43-6.33a1,1,0,0,1,.88-.53h63.38a1,1,0,0,1,.88.53l3.42,6.33a1,1,0,0,1,0,1A1,1,0,0,1,1007.71,197.33Zm-68.55-2H1006l-2.34-4.34H941.5Z"/><path class="cls-1" d="M1007.71,201.32H937.48a1,1,0,0,1-1-1v-4a1,1,0,0,1,1-1h70.23a1,1,0,0,1,1,1v4A1,1,0,0,1,1007.71,201.32Zm-69.23-2h68.23v-2H938.48Z"/><rect class="cls-8" x="944.09" y="149.11" width="57.02" height="37.7"/></g><g id="Fishbowl"><path class="cls-6" d="M1142.49,193.83h-32a22,22,0,0,1-2.61-26.92h37.25A22,22,0,0,1,1142.49,193.83Z"/><path class="cls-5" d="M1142.5,193.83l-.43.45a21.89,21.89,0,0,1-8.11,5.15H1119a22,22,0,0,1-8.12-5.15l-.43-.45Z"/><path class="cls-1" d="M1134,200.43H1119a1,1,0,0,1-.34-.06,22.86,22.86,0,0,1-8.49-5.38l-.42-.44a1,1,0,0,1-.2-1.1,1,1,0,0,1,.9-.62h32a1,1,0,0,1,.73,1.68c-.15.16-.29.32-.45.48a22.75,22.75,0,0,1-8.48,5.38A1,1,0,0,1,1134,200.43Zm-14.77-2h14.59a20.43,20.43,0,0,0,6.21-3.6h-27A20.67,20.67,0,0,0,1119.19,198.43Z"/><path class="cls-1" d="M1142.5,194.83h-32a1,1,0,0,1-.73-.31,22.92,22.92,0,0,1,.45-32.13,1,1,0,0,1,.71-.29h31.17a1.05,1.05,0,0,1,.71.29,22.93,22.93,0,0,1,.45,32.13A1,1,0,0,1,1142.5,194.83Zm-31.6-2h31.16a20.92,20.92,0,0,0-.41-28.73h-30.33A20.91,20.91,0,0,0,1110.9,192.83Z"/><path class="cls-5" d="M1120.8,184.28a5.14,5.14,0,0,1-4.48-2.6,5.18,5.18,0,0,1,9,0A5.17,5.17,0,0,1,1120.8,184.28Z"/><path class="cls-5" d="M1129.76,179.1v5.18a5.14,5.14,0,0,1-4.48-2.6A5.18,5.18,0,0,1,1129.76,179.1Z"/><path class="cls-1" d="M1142.54,194.83h0a1,1,0,0,1,0-2,1,1,0,0,1,1,1A1,1,0,0,1,1142.54,194.83Z"/><path class="cls-1" d="M1110.47,194.83h0a1,1,0,1,1,1-1A1,1,0,0,1,1110.46,194.83Z"/><path class="cls-1" d="M1135,194.83a1,1,0,0,1-1-1v-17a1,1,0,0,1,2,0v17A1,1,0,0,1,1135,194.83Z"/><path class="cls-1" d="M1138.86,194.83a1,1,0,0,1-1-1V182.05a1,1,0,1,1,2,0v11.78A1,1,0,0,1,1138.86,194.83Z"/><path class="cls-1" d="M1131.86,194.83a1,1,0,0,1-1-1v-6.64a1,1,0,0,1,2,0v6.64A1,1,0,0,1,1131.86,194.83Z"/><circle class="cls-2" cx="1111.03" cy="177.45" r="1.89"/><path class="cls-1" d="M1111,180.33a2.89,2.89,0,1,1,2.89-2.88A2.89,2.89,0,0,1,1111,180.33Zm0-3.77a.89.89,0,1,0,.89.89A.89.89,0,0,0,1111,176.56Z"/><circle class="cls-2" cx="1116.32" cy="170.06" r="2.49"/><path class="cls-1" d="M1116.32,173.56a3.5,3.5,0,1,1,3.49-3.5A3.5,3.5,0,0,1,1116.32,173.56Zm0-5a1.5,1.5,0,1,0,1.49,1.49A1.5,1.5,0,0,0,1116.32,168.57Z"/><path class="cls-1" d="M1120.8,185.28a6.2,6.2,0,0,1-5.35-3.1,1,1,0,0,1,0-1,6.18,6.18,0,0,1,10.69,0,1,1,0,0,1,0,1A6.18,6.18,0,0,1,1120.8,185.28Zm-3.28-3.59a4.17,4.17,0,0,0,6.55,0,4.17,4.17,0,0,0-6.55,0Z"/><path class="cls-1" d="M1129.76,185.28a6.2,6.2,0,0,1-5.35-3.1,1,1,0,0,1,0-1,6.2,6.2,0,0,1,5.35-3.08,1,1,0,0,1,1,1v5.18A1,1,0,0,1,1129.76,185.28Zm-3.28-3.59a4.17,4.17,0,0,0,2.28,1.46v-2.93A4.19,4.19,0,0,0,1126.48,181.69Z"/></g></g></svg>