<svg xmlns="http://www.w3.org/2000/svg" viewBox="0 0 282.89 251.74"><defs><style>.cls-1{fill:#999;}.cls-2{fill:none;}.cls-3{fill:#545554;}</style></defs><title>logo</title><g id="Premade_Scenes" data-name="Premade Scenes"><path class="cls-1" d="M132,116.45a4.42,4.42,0,0,0,0-6.27l-16.7-16.7a4.43,4.43,0,0,0-6.26,6.26l16.7,16.7a4.42,4.42,0,0,0,6.23,0Zm22.58-20,5.09,5.09L109,152.26a4.27,4.27,0,0,0,6,6l50.73-50.65,5.09,5.1a2.14,2.14,0,0,0,3.64-1.54V94.74a1.9,1.9,0,0,0-1.89-1.9H156.14A2.14,2.14,0,0,0,154.6,96.48Zm13.31,49.61-10.77-10.8a4.4,4.4,0,0,0-6.25,0h0a4.42,4.42,0,0,0,0,6.26l10.76,10.76m12.17,5.88a4.42,4.42,0,0,0,0-6.27l-16.7-16.7a4.43,4.43,0,1,0-6.26,6.26l16.7,16.69a4.42,4.42,0,0,0,6.23,0Z"/><path class="cls-2" d="M54.57,76.05h99.64v99.64H54.57Z"/><path class="cls-2" d="M228.32,175.69H128.68V76.05h99.64Z"/><path class="cls-3" d="M106.15,167.57,71.93,133.35a10.59,10.59,0,0,1,0-15l34.22-34.22a10.57,10.57,0,0,0,0-15h0a10.57,10.57,0,0,0-15,0L42,118.38a10.59,10.59,0,0,0,0,15l49.19,49.2a10.59,10.59,0,0,0,15,0h0A10.59,10.59,0,0,0,106.15,167.57Z"/><path class="cls-3" d="M176.74,167.57,211,133.35a10.59,10.59,0,0,0,0-15L176.74,84.16a10.57,10.57,0,0,1,0-15h0a10.57,10.57,0,0,1,15,0l49.19,49.19a10.59,10.59,0,0,1,0,15l-49.19,49.2a10.59,10.59,0,0,1-15,0h0A10.59,10.59,0,0,1,176.74,167.57Z"/></g></svg>